<svg width="30" height="28" fill="none" xmlns="http://www.w3.org/2000/svg"><path d="M5.148 20.313l2.098 5.019 2.106-5.02h.64V26h-.48v-2.477l.039-2.539L7.434 26h-.372l-2.109-4.996.04 2.504V26h-.481v-5.688h.636zm9.426 2.96h-2.66v2.32h3.059V26h-3.54v-5.688h3.52v.41h-3.039v2.145h2.66v.406zM20.223 26h-.48l-3.27-4.867V26h-.485v-5.688h.485l3.273 4.872v-4.872h.477V26zm5.363-5.688v3.883a1.966 1.966 0 01-.254 1 1.673 1.673 0 01-.707.657c-.302.15-.65.226-1.043.226-.599 0-1.08-.163-1.441-.488-.36-.328-.546-.781-.559-1.36v-3.918h.477v3.848c0 .48.136.852.41 1.117.273.263.644.395 1.113.395s.839-.133 1.11-.399c.273-.265.41-.635.41-1.109v-3.852h.484z" fill="#000"/><rect y="12" width="30" height="2" rx="1" fill="#202020"/><rect y="6" width="30" height="2" rx="1" fill="#202020"/><rect width="30" height="2" rx="1" fill="#202020"/></svg>